PathFileType	4	(X/Y/Z)	./resultDataOpenSim/trcMotMarkerGrf/sub06/qtm-05-05.trc
DataRate	CameraRate	NumFrames	NumMarkers	Units	OrigDataRate	OrigDataStartFrame	OrigNumFrames
250.000000	250.000000	13	24	m	250.000000	64	505
Frame#	Time	L.Toe.Tip			R.Toe.Tip			L.Ankle.Lat			R.Ankle.Lat			L.Ankle.Med			R.Ankle.Med			L.Heel			R.Heel			L.Knee.Lat			R.Knee.Lat			L.Knee.Med			R.Knee.Med			L.Thigh.Upper			R.Thigh.Upper			L.ASIS			R.ASIS			V.Sacral			L.Acromium			R.Acromium			C7			L.Elbow			R.Elbow			L.Wrist.Lat			R.Wrist.Lat
		X1	Y1	Z1	X2	Y2	Z2	X3	Y3	Z3	X4	Y4	Z4	X5	Y5	Z5	X6	Y6	Z6	X7	Y7	Z7	X8	Y8	Z8	X9	Y9	Z9	X10	Y10	Z10	X11	Y11	Z11	X12	Y12	Z12	X13	Y13	Z13	X14	Y14	Z14	X15	Y15	Z15	X16	Y16	Z16	X17	Y17	Z17	X18	Y18	Z18	X19	Y19	Z19	X20	Y20	Z20	X21	Y21	Z21	X22	Y22	Z22	X23	Y23	Z23	X24	Y24	Z24

64	0.252	-1.3661716	0.082344347	-0.066352495	-0.81010548	0.034654724	0.075587628	-1.3467108	0.21049681	-0.10329131	-0.94376384	0.059481019	0.10148389	-1.3265549	0.21434402	-0.022487812	-0.92679114	0.081632403	0.014933022	-1.3864047	0.27393957	-0.059538269	-1.00141	0.03997729	0.040234724	-1.0080414	0.37763381	-0.12923709	-0.8571832	0.43531235	0.14467075	-1.0017112	0.36433207	-0.01020716	-0.89791239	0.42916863	0.021716905	-1.0329088	0.77145565	-0.12763093	-0.98861071	0.79077356	0.21282736	-0.95056983	0.81936391	-0.093438926	-0.90911288	0.83806658	0.1458384	-1.1167194	0.91166135	0.052962763	-0.96695817	1.3130567	-0.14275678	-0.9711908	1.2926748	0.22014154	-1.0457796	1.3472463	0.038372047	-0.99052847	0.98873026	-0.19308437	-1.0818901	0.99620586	0.27548402	-0.80253821	0.82830189	-0.18516829	-0.97792825	0.78517088	0.32986192
65	0.256	-1.3498654	0.082634209	-0.065866285	-0.81026815	0.034678993	0.075831874	-1.3324587	0.21100836	-0.10301559	-0.94410613	0.059479888	0.1016812	-1.3126419	0.21546803	-0.02226782	-0.92696897	0.081859258	0.015257156	-1.3737118	0.27381108	-0.059184422	-1.0013992	0.040103659	0.040275234	-0.99542662	0.37986152	-0.12923521	-0.85612857	0.43517272	0.14538238	-0.98987951	0.36689215	-0.0097780317	-0.89614202	0.42965548	0.021973463	-1.0261	0.77361033	-0.12746777	-0.98331186	0.7920597	0.21373283	-0.94427822	0.82143571	-0.093001717	-0.90314695	0.83970219	0.14726529	-1.1107799	0.91341041	0.053240725	-0.96164269	1.3150548	-0.14265822	-0.96478852	1.2948613	0.22022708	-1.039788	1.3490807	0.038564116	-0.98633514	0.99097753	-0.19267436	-1.0736002	0.99787308	0.27677013	-0.79966036	0.829105	-0.18570679	-0.96803208	0.78771936	0.33029541
66	0.26	-1.333311	0.0827363	-0.065426272	-0.8104254	0.034702765	0.076056344	-1.3183204	0.21132361	-0.10263769	-0.9444421	0.059501267	0.10187512	-1.2985708	0.2163826	-0.02205258	-0.92708222	0.082103481	0.015592955	-1.3608806	0.27337771	-0.058726208	-1.0014075	0.04024394	0.040332805	-0.98285337	0.3822309	-0.12918612	-0.85518325	0.43507984	0.14605898	-0.97824644	0.36943323	-0.0090695929	-0.89454659	0.43014356	0.022380356	-1.0192473	0.77585243	-0.12704254	-0.97788756	0.79341744	0.2146413	-0.93790359	0.82352137	-0.092480824	-0.89710811	0.84134729	0.14873316	-1.1046235	0.91519919	0.053316157	-0.95631823	1.3170674	-0.14255572	-0.95837114	1.2970907	0.22029499	-1.033814	1.3509284	0.038753981	-0.98226853	0.99331678	-0.19261942	-1.0654544	0.99960501	0.27794184	-0.79685194	0.82994912	-0.18629442	-0.95807537	0.79034052	0.33068401
67	0.264	-1.316505	0.08266451	-0.065021436	-0.8105724	0.034725183	0.076254393	-1.3042962	0.21142986	-0.10219734	-0.94474497	0.059541991	0.10207137	-1.2843703	0.21709048	-0.021842391	-0.92712977	0.082362063	0.015922213	-1.3479097	0.27267264	-0.058318758	-1.0014254	0.040394522	0.040395114	-0.97031562	0.38473195	-0.129092	-0.85434025	0.43503299	0.14670165	-0.96627062	0.37199897	-0.0083090462	-0.89313558	0.43060644	0.022956657	-1.0123186	0.77816078	-0.12626028	-0.97277316	0.79472388	0.21541662	-0.93146378	0.82562411	-0.091875519	-0.89148344	0.84292127	0.15010341	-1.0983279	0.91699985	0.053369385	-0.95098302	1.3191068	-0.14244795	-0.951896	1.299366	0.22034949	-1.0278499	1.3527874	0.03895109	-0.97838906	0.99573865	-0.19313044	-1.057502	1.0013917	0.2789576	-0.79410286	0.83082603	-0.18693685	-0.94808332	0.79302622	0.33102307
68	0.268	-1.2994522	0.082434623	-0.064670134	-0.81070566	0.034745952	0.076425475	-1.2901984	0.21132169	-0.10176127	-0.9449869	0.059597261	0.10226082	-1.2701067	0.21758704	-0.021605697	-0.92714483	0.082628664	0.016225386	-1.3348005	0.27171813	-0.057967083	-1.0014465	0.040558496	0.040450825	-0.95781848	0.38735051	-0.12894606	-0.85359262	0.43503144	0.14731149	-0.95376674	0.37464825	-0.0076867154	-0.89184782	0.43103151	0.023608495	-1.0053455	0.78048596	-0.12533698	-0.96785863	0.79597128	0.2161245	-0.92498775	0.82774468	-0.091209661	-0.88658023	0.84437955	0.15127369	-1.0919017	0.91875681	0.053463137	-0.94563286	1.32117	-0.14234074	-0.94535274	1.3016728	0.22039591	-1.021883	1.3546524	0.039164369	-0.97467905	0.99819566	-0.19410207	-1.0497335	1.0032023	0.27983117	-0.79140724	0.83172938	-0.18764563	-0.93805201	0.79577147	0.33130597
69	0.272	-1.2821406	0.082072137	-0.06441883	-0.81082263	0.034764759	0.076569897	-1.2758763	0.21101538	-0.10136884	-0.94516614	0.059660032	0.10242916	-1.2559235	0.21787036	-0.021292484	-0.92715212	0.082901989	0.016489988	-1.3215865	0.27051981	-0.057618798	-1.0014669	0.040745315	0.040489345	-0.94536249	0.39007824	-0.12875746	-0.85293339	0.43507448	0.1478896	-0.94095791	0.37738226	-0.0072307635	-0.89062826	0.4314247	0.024224325	-0.99838082	0.78278542	-0.12458653	-0.96298303	0.79719155	0.21684611	-0.91852332	0.82987398	-0.090521779	-0.88207898	0.8457777	0.15230067	-1.0855077	0.92047072	0.05358601	-0.94025804	1.3232335	-0.14224403	-0.93878201	1.303981	0.22042795	-1.0159029	1.3565162	0.039399122	-0.97101117	1.0006258	-0.19501803	-1.0421598	1.0050037	0.28055089	-0.78876339	0.83265627	-0.18843835	-0.92796405	0.79856315	0.33152515
70	0.276	-1.2645306	0.081610606	-0.06433323	-0.81091992	0.034780251	0.076687865	-1.2613207	0.21053515	-0.10102056	-0.94529201	0.059730063	0.10257038	-1.2419126	0.21794428	-0.020879498	-0.92715744	0.083188227	0.016714464	-1.3083097	0.26906955	-0.057251108	-1.0014833	0.040962726	0.040500177	-0.93294347	0.39291529	-0.12854284	-0.8523556	0.43516138	0.14843708	-0.92808571	0.38019225	-0.0068724779	-0.88951094	0.43179427	0.024732955	-0.99144938	0.78505621	-0.12412886	-0.95837704	0.79836051	0.21748544	-0.91213234	0.83199326	-0.089861618	-0.87736399	0.84721534	0.15332699	-1.0794034	0.9221874	0.053730789	-0.93484854	1.3252765	-0.14216205	-0.9322306	1.3062579	0.22042973	-1.009911	1.3583739	0.039657333	-0.96725015	1.0029981	-0.19537293	-1.0347693	1.0067835	0.28112682	-0.78615683	0.8336061	-0.18932118	-0.91782038	0.80138234	0.3316761
71	0.28	-1.2466044	0.081076432	-0.064454386	-0.81099365	0.034790551	0.076783219	-1.2466036	0.20989738	-0.10069741	-0.94536048	0.059817718	0.10268735	-1.2279389	0.21780458	-0.020417838	-0.92715801	0.083490673	0.016900829	-1.2949883	0.26736249	-0.056859125	-1.0014938	0.041207453	0.040476182	-0.92056695	0.39585698	-0.12830278	-0.85185229	0.43529141	0.14895503	-0.91523314	0.38309169	-0.0065394447	-0.88859308	0.43213378	0.025118866	-0.98455701	0.78732223	-0.12388209	-0.95430331	0.7994399	0.21787633	-0.90582904	0.83409498	-0.089260673	-0.87219335	0.84872734	0.15440623	-1.0736135	0.92391964	0.053919923	-0.92940187	1.3272991	-0.14208962	-0.92570579	1.3084878	0.22039447	-1.0039197	1.3602244	0.039939251	-0.96336861	1.0053226	-0.19510785	-1.0274465	1.008561	0.28167436	-0.78355453	0.83457479	-0.1902755	-0.90766083	0.80421817	0.33175752
72	0.284	-1.2284753	0.08046493	-0.064673985	-0.81104168	0.034794641	0.076862692	-1.2317884	0.20910798	-0.10038449	-0.94537293	0.05992687	0.1027792	-1.213735	0.2174339	-0.019991872	-0.92714646	0.083802343	0.017046351	-1.2815825	0.26537063	-0.056459015	-1.001497	0.041462463	0.04042074	-0.90824344	0.398882	-0.12802514	-0.85141641	0.43546386	0.1494446	-0.90242317	0.38609067	-0.0061933805	-0.88785384	0.43244623	0.025419356	-0.97771964	0.78960634	-0.1237093	-0.95030291	0.8005096	0.21809887	-0.89950737	0.83620778	-0.088684011	-0.86676004	0.8502711	0.1554867	-1.0679133	0.9256395	0.054186991	-0.92392505	1.3293112	-0.14201602	-0.91918988	1.310678	0.22033541	-0.99794318	1.3620654	0.040242861	-0.95942442	1.0076187	-0.19448482	-1.0200379	1.0103641	0.28234482	-0.7809392	0.83554971	-0.19127704	-0.89753156	0.8070753	0.33177096
73	0.288	-1.2103683	0.079729348	-0.064728383	-0.811064	0.034792628	0.076930898	-1.2168983	0.20816162	-0.10007571	-0.94538127	0.060029864	0.10282623	-1.1991592	0.2168267	-0.019637545	-0.92710712	0.084112453	0.017151294	-1.2680281	0.26304031	-0.056068839	-1.0014903	0.041712179	0.040349987	-0.89597228	0.40196085	-0.12770571	-0.85104077	0.43567804	0.14990692	-0.88971175	0.38917538	-0.0058296119	-0.88712517	0.43276519	0.02569301	-0.97095993	0.79192046	-0.12351928	-0.94552347	0.80173479	0.21844923	-0.89301767	0.83837669	-0.088056925	-0.86130957	0.85179649	0.1565158	-1.062118	0.92732608	0.054543178	-0.91842746	1.3313065	-0.14193369	-0.91266197	1.3128417	0.2202707	-0.99198851	1.3638866	0.040563049	-0.95547348	1.0098976	-0.19373994	-1.0124987	1.012195	0.28318017	-0.77834136	0.83651217	-0.19232144	-0.88743275	0.809965	0.33172449
74	0.292	-1.1923272	0.078829641	-0.06451639	-0.81106017	0.034785845	0.0769904	-1.2019318	0.20704626	-0.099760997	-0.94549676	0.060065566	0.10278931	-1.1842536	0.21600557	-0.01933207	-0.92701439	0.084417128	0.017231137	-1.2543729	0.26038764	-0.055593982	-1.0014672	0.041967518	0.040280718	-0.88374632	0.40507381	-0.12735211	-0.85071809	0.4359333	0.15034311	-0.8771936	0.39231458	-0.0054598413	-0.88630111	0.43312623	0.025969918	-0.96426419	0.79425877	-0.12328826	-0.93982655	0.80315455	0.21903643	-0.88635289	0.84060891	-0.087360539	-0.85586027	0.85331684	0.15749153	-1.0562302	0.92897808	0.054962339	-0.91291874	1.3332655	-0.14184845	-0.90609829	1.3149766	0.22020312	-0.98605527	1.3656741	0.040891878	-0.95153786	1.0121688	-0.19298356	-1.0048961	1.0140316	0.28411124	-0.77580819	0.83744635	-0.1934153	-0.8773245	0.8128913	0.33162992
75	0.296	-1.1740755	0.07779519	-0.064288779	-0.8110288	0.034776551	0.077044902	-1.186882	0.20575523	-0.099424645	-0.94578929	0.059998412	0.1026451	-1.1691434	0.21499692	-0.019027403	-0.92684496	0.084722882	0.017308338	-1.2407398	0.25751157	-0.054888828	-1.0014218	0.042262044	0.04021547	-0.87157131	0.40821539	-0.1269672	-0.85044146	0.43622902	0.1507541	-0.86493009	0.39549038	-0.0050848959	-0.88542956	0.43352996	0.026240433	-0.95753812	0.79658862	-0.12301072	-0.93381444	0.80461029	0.21968106	-0.87964852	0.84286887	-0.086643071	-0.85016635	0.85492207	0.15845175	-1.0503753	0.93060375	0.055412788	-0.90741206	1.3351804	-0.14177639	-0.89949383	1.3170669	0.22012334	-0.98013819	1.3674231	0.041220854	-0.94761786	1.014436	-0.1922565	-0.99730459	1.0158514	0.28506028	-0.77334738	0.83834807	-0.19455492	-0.86717947	0.81584738	0.33149568
76	0.3	-1.1553403	0.076703575	-0.064335532	-0.81097069	0.034766298	0.077098339	-1.1717464	0.20428844	-0.099058508	-0.94614758	0.05989911	0.10243362	-1.1539706	0.21379929	-0.018685799	-0.92659514	0.085041647	0.017391602	-1.2271316	0.25446277	-0.053995687	-1.0013549	0.042621198	0.040139234	-0.85947013	0.41138467	-0.12653674	-0.85020523	0.4365644	0.15114057	-0.85285885	0.39872768	-0.004672495	-0.88454221	0.43396394	0.026483663	-0.95064101	0.79886792	-0.12268749	-0.9279972	0.80590066	0.22020771	-0.87300372	0.84512342	-0.085941744	-0.84401261	0.85667567	0.15943035	-1.0447061	0.93222111	0.055900728	-0.90192036	1.3370542	-0.14172493	-0.89289068	1.3191054	0.22002476	-0.97423054	1.3691326	0.041545125	-0.94370592	1.0166863	-0.19156403	-0.98975902	1.0176427	0.28599171	-0.77092415	0.83922306	-0.1957292	-0.8570036	0.81882205	0.33132609
